HIERARCHY
ROOT Hips
{
	OFFSET 0.000000 88.474243 0.000000
	CHANNELS 6 Xposition Yposition Zposition Zrotation Yrotation Xrotation 
	JOINT Hips_Spine
	{
		OFFSET 0.000000 0.000000 0.000000
		CHANNELS 3 Zrotation Yrotation Xrotation
		JOINT Spine
		{
			OFFSET 0.005100 8.711998 -0.691000
			CHANNELS 3 Zrotation Yrotation Xrotation
			JOINT Spine1
			{
				OFFSET -0.009200 8.660301 -1.275000
				CHANNELS 3 Zrotation Yrotation Xrotation
				JOINT Spine2
				{
					OFFSET 0.006300 9.852501 -1.857000
					CHANNELS 3 Zrotation Yrotation Xrotation
					JOINT Spine2_Neck
					{
						OFFSET 0.000000 0.000000 0.000000
						CHANNELS 3 Zrotation Yrotation Xrotation
						JOINT Neck
						{
							OFFSET 0.016300 11.420799 -0.263300
							CHANNELS 3 Zrotation Yrotation Xrotation
							End Site #name: Head
							{
								OFFSET -0.019200 9.262405 2.362500
							}
						}
					}
					JOINT Spine2_LeftShoulder
					{
						OFFSET 0.000000 0.000000 0.000000
						CHANNELS 3 Zrotation Yrotation Xrotation
						JOINT LeftShoulder
						{
							OFFSET 5.616900 6.732201 -0.345700
							CHANNELS 3 Zrotation Yrotation Xrotation
							JOINT LeftArm
							{
								OFFSET 10.664888 -0.183372 -2.440700
								CHANNELS 3 Zrotation Yrotation Xrotation
								JOINT LeftForeArm
								{
									OFFSET 27.459126 0.000000 0.000000
									CHANNELS 3 Zrotation Yrotation Xrotation
									End Site #name: LeftHand
									{
										OFFSET 21.306858 0.000000 0.000000
									}
								}
							}
						}
					}
					JOINT Spine2_RightShoulder
					{
						OFFSET 0.000000 0.000000 0.000000
						CHANNELS 3 Zrotation Yrotation Xrotation
						JOINT RightShoulder
						{
							OFFSET -5.580300 6.737503 -0.344400
							CHANNELS 3 Zrotation Yrotation Xrotation
							JOINT RightArm
							{
								OFFSET -10.679335 -0.188484 -2.383900
								CHANNELS 3 Zrotation Yrotation Xrotation
								JOINT RightForeArm
								{
									OFFSET -27.503529 0.000000 0.000000
									CHANNELS 3 Zrotation Yrotation Xrotation
									End Site #name: RightHand
									{
										OFFSET -21.306808 0.000000 0.000000
									}
								}
							}
						}
					}
				}
			}
		}
	}
	JOINT Hips_LeftUpLeg
	{
		OFFSET 0.000000 0.000000 0.000000
		CHANNELS 3 Zrotation Yrotation Xrotation
		JOINT LeftUpLeg
		{
			OFFSET 6.857700 -6.739601 0.312100
			CHANNELS 3 Zrotation Yrotation Xrotation
			JOINT LeftLeg
			{
				OFFSET -0.367590 -34.731552 -4.572400
				CHANNELS 3 Zrotation Yrotation Xrotation
				End Site #name: LeftFoot
				{
					OFFSET 0.367590 -34.656704 -6.067400
				}
			}
		}
	}
	JOINT Hips_RightUpLeg
	{
		OFFSET 0.000000 0.000000 0.000000
		CHANNELS 3 Zrotation Yrotation Xrotation
		JOINT RightUpLeg
		{
			OFFSET -6.876100 -6.733299 0.301000
			CHANNELS 3 Zrotation Yrotation Xrotation
			JOINT RightLeg
			{
				OFFSET 0.347353 -34.795158 -4.515900
				CHANNELS 3 Zrotation Yrotation Xrotation
				End Site #name: RightFoot
				{
					OFFSET -0.347353 -34.589367 -6.070300
				}
			}
		}
	}
}
MOTION
Frames: 18
Frame Time: 0.041667
-4.502967 -5.115353 -8.052762 -2.304489 43.304653 0.683398 0.000000 -0.000000 -0.000000 -0.347277 -0.937254 18.613783 0.543333 0.066425 6.362249 0.000000 0.000000 0.000000 0.461711 -0.134796 5.631694 3.936729 -0.537718 -6.082628 0.314911 0.010444 5.630362 -0.095290 18.089804 -1.354734 -44.750027 8.296139 5.587798 -177.751163 -78.351562 178.082592 0.260191 0.260733 6.367572 -0.280727 -10.101389 0.431403 33.117434 14.561062 2.948468 -179.630020 66.811686 -179.676217 -0.000000 0.000000 0.000000 -10.680091 10.717869 -71.376636 -2.961621 -0.130161 109.228293 0.000000 -0.000000 -0.000000 4.929616 -30.179355 -39.168618 -0.321627 10.779436 46.727450 
-4.585596 -6.235633 -7.451431 -0.989368 51.009999 2.131913 0.000000 -0.000000 0.000000 -1.005996 -0.931218 20.168319 0.647300 -0.016387 7.398193 0.000000 0.000000 0.000000 0.513874 -0.186296 6.481077 2.696520 -1.373698 -5.646138 0.435156 -0.057812 6.627052 -1.343803 24.840403 -2.210097 -45.587391 14.346351 6.294565 -177.828073 -74.832365 178.359563 0.384903 0.179972 7.327034 2.150638 -4.755715 0.817402 30.948544 22.148344 5.409778 -179.504907 71.477570 -179.627565 -0.000000 0.000000 0.000000 -10.109952 8.560541 -79.851131 -5.682357 0.390854 121.769928 0.000000 -0.000000 -0.000000 2.721057 -29.597336 -38.211794 -0.761239 10.620881 47.573254 
-4.204648 -5.572336 -6.362726 1.465129 59.230947 4.209619 0.000000 -0.000000 0.000000 -1.403326 -1.295582 20.797089 0.801424 -0.139105 8.296503 0.000000 0.000000 0.000000 0.578591 -0.250211 7.230620 1.668617 -1.957481 -6.180032 0.558842 -0.155844 7.589512 -3.068164 30.313106 -3.323435 -48.545327 18.499515 8.162219 -171.198172 -86.052330 171.873858 0.509943 0.045808 8.138467 1.695008 -0.198883 1.331043 29.901723 33.222228 9.458197 -179.313256 79.808201 -179.363953 -0.000000 0.000000 -0.000000 -8.871218 5.365220 -81.472150 -6.337730 0.498855 123.330196 0.000000 -0.000000 -0.000000 -0.385619 -29.152521 -35.412481 -1.329094 10.505096 46.490661 
-3.474691 -3.538515 -4.888432 4.942542 66.465447 6.829758 0.000000 -0.000000 0.000000 -1.549582 -1.584289 20.574005 0.898684 -0.240095 8.969597 0.000000 0.000000 0.000000 0.665741 -0.300326 7.761094 1.539612 -2.439881 -7.305681 0.608378 -0.241390 8.436785 -3.195701 34.298941 -3.910283 -55.385858 24.080328 9.656639 -1.259594 -66.906909 1.952431 0.582864 -0.067751 8.679433 -0.804134 3.291370 1.487360 32.740426 46.445570 13.393373 -0.234970 81.370681 -0.227500 -0.000000 0.000000 -0.000000 -8.056458 2.711146 -76.342201 -6.933663 0.234129 114.908153 0.000000 -0.000000 -0.000000 -3.745483 -28.359748 -31.392327 -1.631793 10.457974 43.660592 
-2.533259 -1.058395 -3.177283 10.431143 72.573330 11.358440 -0.000000 -0.000000 0.000000 -1.455037 -1.852748 19.642951 0.922126 -0.298134 9.310736 0.000000 0.000000 0.000000 0.684192 -0.330568 8.086689 2.217589 -3.077536 -8.274090 0.580025 -0.279394 9.017878 -1.207146 37.516638 -3.890742 -66.564378 30.010402 5.314426 -0.406135 -30.319116 0.933749 0.597972 -0.134010 8.974601 -3.761280 4.419334 1.173079 38.035620 60.875324 16.407152 0.107798 58.029626 0.125183 -0.000000 0.000000 -0.000000 -7.883059 2.055699 -66.588006 -8.544336 -1.045646 96.036586 -0.000000 -0.000000 -0.000000 -7.449564 -28.008872 -26.511208 -1.966046 10.422709 39.228067 
-1.417679 1.028448 -1.427878 21.734376 77.884877 21.722408 -0.000000 -0.000000 0.000000 -1.155207 -1.944767 18.163401 0.881045 -0.307857 9.442768 0.000000 0.000000 0.000000 0.644847 -0.343174 8.192687 3.306322 -4.125138 -8.775274 0.528719 -0.286139 9.140511 2.401282 39.654749 -3.075776 -74.788410 32.916137 1.043809 -0.253727 -1.295180 0.583029 0.586856 -0.165481 9.089818 -6.413206 4.635588 0.871120 37.706907 77.225899 12.001626 0.231158 43.112351 0.090210 -0.000000 0.000000 -0.000000 -8.168872 3.015161 -55.369508 -8.441340 -3.702566 73.274964 -0.000000 -0.000000 -0.000000 -10.638386 -27.153269 -21.593089 -2.934711 9.960328 34.178608 
-0.185053 2.208286 0.293767 50.376443 82.219368 49.608655 -0.000000 -0.000000 0.000000 -0.748010 -1.532291 16.543794 0.825200 -0.295186 9.354219 0.000000 0.000000 0.000000 0.600028 -0.350235 8.097095 4.267146 -5.239586 -8.628267 0.504090 -0.314995 9.031531 5.816836 40.514091 -2.036605 -79.234393 33.395094 -2.868199 -0.250069 9.775590 0.442409 0.572829 -0.163751 9.082546 -8.853997 4.089514 0.783723 -65.452414 86.194950 -93.480436 0.295122 35.122325 0.133792 -0.000000 0.000000 0.000000 -9.396266 4.495979 -46.899754 -6.416327 -6.361153 50.291301 -0.000000 -0.000000 -0.000000 -13.595436 -26.377373 -16.913580 -3.793856 9.533148 29.653034 
1.119401 2.437451 1.978328 91.374425 82.530942 90.049855 -0.000000 -0.000000 0.000000 -0.589800 -1.299143 14.749121 0.783396 -0.291282 9.135267 0.000000 0.000000 0.000000 0.602913 -0.356605 7.908617 4.913758 -6.115695 -8.168403 0.508356 -0.379323 8.773853 9.440617 40.427347 -0.838464 -79.436180 31.153626 -6.595672 -0.219997 18.318274 0.332589 0.579141 -0.180863 8.944383 -12.093237 3.144962 0.758150 -100.547689 74.566710 -130.594341 0.304029 31.362107 0.176208 -0.000000 0.000000 0.000000 -10.390869 4.651718 -42.433316 -5.140357 -7.203291 38.665240 -0.000000 -0.000000 -0.000000 -16.363170 -25.296703 -12.704367 -4.198009 9.471608 26.370708 
2.476259 2.091451 3.601674 116.919009 80.199039 115.204339 -0.000000 -0.000000 0.000000 -0.611889 -1.200824 13.263715 0.788122 -0.277149 8.701471 0.000000 0.000000 0.000000 0.648586 -0.364247 7.552566 5.234474 -6.461356 -7.669225 0.561002 -0.448390 8.296158 13.985224 39.279620 0.616972 -75.810001 26.773591 -9.784171 -0.208011 23.383242 0.257034 0.613197 -0.228469 8.613973 -14.679513 2.537841 0.779840 -97.263279 63.511459 -128.967790 0.265656 29.519904 0.183883 -0.000000 0.000000 0.000000 -11.650669 4.725106 -39.906844 -4.768255 -7.660004 32.527738 -0.000000 -0.000000 -0.000000 -18.718595 -24.032645 -9.004355 -4.182815 9.777513 24.162373 
3.878007 1.466735 5.125790 128.412644 77.602158 126.454125 -0.000000 -0.000000 0.000000 -0.737192 -1.228111 12.069114 0.811846 -0.267881 8.079160 0.000000 0.000000 0.000000 0.684324 -0.362471 7.056598 5.083896 -6.276031 -6.942354 0.607364 -0.487754 7.749137 19.096774 37.031690 2.122827 -69.801943 22.322513 -12.593243 -0.157055 26.169353 0.247113 0.641939 -0.262175 8.151476 -16.735875 2.548575 0.862947 -90.875458 56.738140 -124.605685 0.220854 30.663655 0.021267 -0.000000 0.000000 0.000000 -13.153718 4.690563 -38.606344 -5.060299 -8.529457 31.416832 -0.000000 -0.000000 -0.000000 -20.785892 -22.833139 -5.704181 -4.161252 10.049449 22.657577 
5.316449 0.896338 6.503542 133.878583 75.474693 131.743479 -0.000000 -0.000000 0.000000 -0.868456 -1.259082 10.914733 0.808819 -0.247467 7.314721 0.000000 0.000000 0.000000 0.698310 -0.340436 6.422270 4.604184 -5.708663 -5.870318 0.631245 -0.486865 7.061532 23.973945 33.529712 3.161587 -62.458737 19.448963 -14.690624 -0.133061 26.905995 0.185765 0.638216 -0.279088 7.395284 -18.406209 2.784023 1.122157 -78.525657 52.546572 -114.660281 0.175905 34.033413 -0.117463 -0.000000 0.000000 0.000000 -14.964543 4.786270 -38.126732 -5.409836 -9.278359 32.643663 -0.000000 -0.000000 -0.000000 -22.540782 -21.647688 -2.847345 -3.998845 10.272261 21.829416 
6.748007 0.671763 7.697499 136.150675 74.094081 133.777949 -0.000000 -0.000000 0.000000 -1.153160 -1.201786 9.821322 0.795270 -0.199807 6.490349 0.000000 0.000000 0.000000 0.677152 -0.308533 5.724242 4.263868 -5.056025 -5.016929 0.652674 -0.453727 6.277899 28.313413 28.145100 3.410096 -58.106040 18.365081 -16.266872 -0.010835 24.965825 0.251414 0.641103 -0.265652 6.527263 -19.726205 3.052177 1.425905 -64.686868 50.986125 -99.124745 0.122936 35.877879 -0.213801 -0.000000 0.000000 0.000000 -16.587646 4.860446 -37.774798 -5.707408 -9.544651 34.740470 -0.000000 -0.000000 -0.000000 -24.220619 -20.162510 -0.723441 -2.983412 10.594175 21.930225 
8.073984 0.849322 8.720451 136.180155 73.604875 133.343609 -0.000000 0.000000 -0.000000 -1.448735 -1.149732 8.479175 0.787316 -0.147492 5.777794 0.000000 0.000000 0.000000 0.687373 -0.263184 5.126352 4.083070 -4.718044 -4.122231 0.670579 -0.407473 5.554977 30.070030 22.699322 2.864235 -56.132573 18.879177 -16.249215 0.083573 21.145344 0.316523 0.651668 -0.253652 5.689173 -20.457610 3.226414 1.503101 -49.692257 48.149804 -81.213466 0.087393 36.086640 -0.291967 -0.000000 0.000000 0.000000 -17.675705 4.602526 -36.697544 -5.681388 -9.257527 36.059321 -0.000000 -0.000000 -0.000000 -25.676851 -18.772885 0.420933 -1.629056 10.943236 23.900071 
9.160949 1.267403 9.594600 134.415477 74.033719 130.949103 -0.000000 0.000000 -0.000000 -1.684813 -1.064106 6.993243 0.811690 -0.114751 5.176130 0.000000 0.000000 0.000000 0.722413 -0.234451 4.626495 4.094072 -4.762935 -3.191665 0.686980 -0.368722 4.970593 28.810168 17.905629 1.967839 -52.454863 19.107140 -12.452674 0.130678 14.330339 0.378249 0.685944 -0.269486 4.962531 -20.361223 2.924233 1.269316 -33.860789 41.671266 -63.973593 -0.000545 36.351046 -0.305107 -0.000000 0.000000 0.000000 -18.604350 4.013700 -34.979012 -5.412347 -8.733282 36.873376 -0.000000 -0.000000 -0.000000 -25.830311 -17.736372 -1.427794 0.106093 11.410167 27.976283 
9.931771 1.629295 10.362980 131.781144 75.043708 127.580686 -0.000000 0.000000 -0.000000 -1.767142 -0.938243 5.634095 0.875652 -0.099503 4.705657 0.000000 0.000000 0.000000 0.773725 -0.224867 4.243158 4.194258 -4.728731 -2.489530 0.718261 -0.347201 4.553732 23.531730 14.573621 1.052265 -45.703612 16.524275 -4.798177 0.192302 0.614125 0.534788 0.724482 -0.291903 4.384646 -19.227108 2.521108 0.766681 -17.237991 31.144496 -50.820974 -0.002267 42.961765 -0.251538 -0.000000 0.000000 0.000000 -18.937611 3.667932 -33.006390 -5.201388 -8.240020 38.586402 -0.000000 -0.000000 -0.000000 -23.987952 -16.624687 -6.217530 2.553504 12.000938 33.845537 
10.355037 1.545390 10.913334 128.997049 76.884302 123.701462 -0.000000 0.000000 -0.000000 -1.743305 -0.955412 4.861153 0.923339 -0.095490 4.427886 0.000000 0.000000 0.000000 0.825401 -0.247335 4.040586 4.320745 -4.666593 -1.977982 0.749002 -0.325191 4.320260 14.421902 12.427932 0.369833 -40.615401 11.083875 2.704495 0.217177 -16.440648 0.768311 0.748405 -0.326060 4.117334 -17.950358 1.404017 0.499192 -1.532885 20.550333 -38.923009 -0.247017 59.835156 -0.547747 -0.000000 0.000000 0.000000 -18.380594 4.289645 -31.560804 -5.100528 -7.947418 42.704398 -0.000000 -0.000000 -0.000000 -20.968531 -15.311993 -11.976033 4.614839 12.261219 40.002551 
10.470435 0.756704 11.115611 127.146180 79.164064 120.528865 -0.000000 0.000000 0.000000 -1.675711 -1.463925 5.291068 0.884780 -0.121700 4.419436 0.000000 0.000000 0.000000 0.845817 -0.292769 4.077619 4.495187 -4.405731 -1.533615 0.712197 -0.332774 4.322432 4.769409 11.200617 -0.417948 -40.326904 4.328950 8.826628 0.179532 -31.853634 1.257238 0.777442 -0.352067 4.182845 -15.665697 0.271579 0.594118 9.624220 10.349614 -22.949462 -1.877098 76.947386 -2.219371 -0.000000 0.000000 0.000000 -17.334406 5.086036 -30.363712 -5.187867 -8.031778 47.431251 -0.000000 -0.000000 -0.000000 -17.962438 -13.455776 -16.140669 5.370375 11.868662 45.549303 
10.370997 -0.672734 10.921653 128.742544 81.553882 120.712739 -0.000000 0.000000 0.000000 -1.597046 -2.181433 6.917585 0.795536 -0.182218 4.672401 0.000000 0.000000 0.000000 0.841568 -0.347910 4.374081 5.010377 -4.058150 -1.400077 0.676522 -0.342530 4.598059 -7.779508 9.856611 -1.209594 -44.013307 -0.389835 16.189070 0.097599 -38.664698 1.781242 0.812872 -0.377399 4.534521 -12.437974 -1.108460 0.879318 25.081160 -0.106919 -5.144077 -173.958946 84.332388 -174.251684 -0.000000 0.000000 0.000000 -15.801344 4.514857 -30.246951 -5.436731 -8.541118 52.157151 -0.000000 -0.000000 -0.000000 -15.121392 -11.020753 -20.058731 4.651936 11.020400 51.746013 
